# AST/ASF file generated using VICON BodyLanguage
# -----------------------------------------------
:version 1.10
:name VICON
:units
  mass 1.0
  length 0.45
  angle deg
:documentation
   .ast/.asf automatically generated from VICON data using
   VICON BodyBuilder and BodyLanguage model FoxedUp or BRILLIANT.MOD
:root
   order TX TY TZ RX RY RZ
   axis XYZ
   position 0 0 0  
   orientation 0 0 0 
:bonedata
  begin
     id 1 
     name lhipjoint
     direction 0.702568 -0.596508 0.388042 
     length 2.56661 
     axis 0 0 0  XYZ
  end
  begin
     id 2 
     name lfemur
     direction 0.34202 -0.939693 0  
     length 6.58374  
     axis 0 0 20  XYZ
    dof rx ry rz
    limits (-160.0 20.0)
           (-70.0 70.0)
           (-60.0 70.0)
  end
  begin
     id 3 
     name ltibia
     direction 0.34202 -0.939693 0   
     length 6.62538   
     axis 0 0 20   XYZ
    dof rx
    limits (-10.0 170.0)
  end
  begin
     id 4 
     name lfoot
     direction 0.10455 -0.287249 0.952133   
     length 2.26699   
     axis -90 7.62852e-016 20   XYZ
    dof rx rz
    limits (-45.0 90.0)
           (-70.0 20.0)
  end
  begin
     id 5 
     name ltoes
     direction 1.53572e-011 -4.22322e-011 1   
     length 1.12949   
     axis -90 7.62852e-016 20   XYZ
    dof rx
    limits (-90.0 20.0)
  end
  begin
     id 6 
     name rhipjoint
     direction -0.728055 -0.574632 0.373811   
     length 2.66432  
     axis 0 0 0  XYZ 
  end
  begin
     id 7 
     name rfemur
     direction -0.34202 -0.939693 0   
     length 6.66732   
     axis 0 0 -20   XYZ
    dof rx ry rz
    limits (-160.0 20.0)
           (-70.0 70.0)
           (-70.0 60.0)
  end
  begin
     id 8 
     name rtibia
     direction -0.34202 -0.939693 0   
     length 6.59288   
     axis 0 0 -20   XYZ
    dof rx
    limits (-10.0 170.0)
 end
 begin
     id 9 
     name rfoot
     direction -0.119193 -0.327479 0.93731   
     length 2.38061  
     axis -90 -7.62852e-016 -20   XYZ
    dof rx rz
    limits (-45.0 90.0)
           (-20.0 70.0)
  end
  begin
     id 10 
     name rtoes
     direction -1.53547e-011 -4.21827e-011 1   
     length 1.17899   
     axis -90 -7.62852e-016 -20   XYZ
    dof rx
    limits (-90.0 20.0)
  end
  begin
     id 11 
     name lowerback
     direction -0.000416114 0.999912 -0.0132284   
     length 2.12109   
     axis 0 0 0   XYZ
    dof rx ry rz
    limits (-20.0 45.0)
           (-30.0 30.0)
           (-30.0 30.0)
  end
  begin
     id 12 
     name upperback
     direction -0.00136371 0.99809 0.0617608   
     length 2.10067   
     axis 0 0 0   XYZ
    dof rx ry rz
    limits (-20.0 45.0)
           (-30.0 30.0)
           (-30.0 30.0)
  end
  begin
     id 13 
     name thorax
     direction -3.43026e-005 0.997776 0.0666515   
     length 2.10618   
     axis 0 0 0   XYZ
    dof rx ry rz
    limits (-20.0 45.0)
           (-30.0 30.0)
           (-30.0 30.0)
  end
  begin
     id 14 
     name lowerneck
     direction 0.0398646 0.998418 0.0396592   
     length 1.83817   
     axis 0 0 0   XYZ
    dof rx ry rz
    limits (-20.0 45.0)
           (-30.0 30.0)
           (-30.0 30.0)
  end
  begin
     id 15 
     name upperneck
     direction -0.0367268 0.961527 -0.272244   
     length 1.81975   
     axis 0 0 0   XYZ
    dof rx ry rz
    limits (-20.0 45.0)
           (-30.0 30.0)
           (-30.0 30.0)
  end
  begin
     id 16
     name head
     direction -0.0182665 0.99536 -0.0944669  
     length 1.86026  
     axis 0 0 0   XYZ
    dof rx ry rz
    limits (-20.0 45.0)
           (-30.0 30.0)
           (-30.0 30.0)
  end
  begin
     id 17 
     name lclavicle
     direction 0.924239 0.361045 0.124212  
     length 3.26878  
     axis 0 0 0   XYZ
    dof ry rz
    limits (-20.0 10.0)
           (0.0 20.0)
  end
  begin
     id 18 
     name lhumerus
     direction 1 -4.48968e-011 -2.56583e-027   
     length 4.58538   
     axis 180 -30 -90   XYZ
    dof rx ry rz
    limits (-60.0 90.0)
           (-90.0 90.0)
           (-90.0 90.0)
  end
  begin
     id 19
     name lradius
     direction 1 -4.4898e-011 -5.50375e-027   
     length 2.68935   
     axis 180 -30 -90   XYZ
    dof rx
    limits (-10.0 170.0)
  end
  begin
     id 20
     name lwrist
     direction 1 -4.48939e-011 -1.48955e-026   
     length 1.34468   
     axis 9.0955e-015 90 90   XYZ
    dof ry
    limits (-180.0 0.0)
 end
  begin
     id 21 
     name lhand
     direction 1 -4.48936e-011 -2.97907e-026   
     length 0.585058   
     axis 1.90115e-014 90 90   XYZ
    dof rx rz
    limits (-90.0 90.0)
           (-45.0 45.0)
  end
  begin
     id 22 
     name lfingers
     direction 1 -4.49082e-011 -5.96235e-026   
     length 0.471689   
     axis 3.80223e-014 90 90   XYZ
    dof rx
    limits (0.0 90.0)
  end
  begin
     id 23
     name lthumb
     direction 0.707107 -6.3489e-011 0.707107   
     length 0.677253   
     axis -90 45 -3.84942e-014   XYZ
    dof rx rz
    limits (-45.0 45.0)
           (-45.0 45.0)
  end
  begin
     id 24 
     name rclavicle
     direction -0.923098 0.371783 0.0983239   
     length 3.19656  
     axis 0 0 0   XYZ 
    dof ry rz
    limits (-10.0 20.0)
           (-20.0 0.0)
  end
  begin
     id 25 
     name rhumerus
     direction -1 -4.48976e-011 -2.5492e-027  
     length 4.4745   
     axis 180 30 90   XYZ
    dof rx ry rz
    limits (-90.0 60.0)
           (-90.0 90.0)
           (-90.0 90.0)
  end
  begin
     id 26 
     name rradius
     direction -1 -4.48941e-011 -4.36555e-027   
     length 2.93896   
     axis 180 30 90   XYZ
    dof rx
    limits (-10.0 170.0)
  end
  begin
     id 27 
     name rwrist
     direction -1 -4.49044e-011 -1.49032e-026   
     length 1.46948   
     axis 9.0955e-015 -90 -90   XYZ
    dof ry
    limits (-180.0 0.0)
  end
  begin
     id 28
     name rhand
     direction -1 -4.48826e-011 -2.97749e-026   
     length 0.405092   
     axis 1.90115e-014 -90 -90   XYZ
    dof rx rz
    limits (-90.0 90.0)
           (-45.0 45.0)
  end
  begin
     id 29
     name rfingers
     direction -1 -4.49209e-011 -5.96602e-026   
     length 0.326596   
     axis 3.80223e-014 -90 -90   XYZ
    dof rx
    limits (0.0 90.0)
  end
  begin
     id 30
     name rthumb
     direction -0.707107 -6.34776e-011 0.707107   
     length 0.468928   
     axis -90 -45 3.84942e-014   XYZ
    dof rx rz
    limits (-45.0 45.0)
           (-45.0 45.0)
  end
:hierarchy
  begin
    root lhipjoint rhipjoint lowerback
    lhipjoint lfemur
    lfemur ltibia
    ltibia lfoot
    lfoot ltoes
    rhipjoint rfemur
    rfemur rtibia
    rtibia rfoot
    rfoot rtoes
    lowerback upperback
    upperback thorax
    thorax lowerneck lclavicle rclavicle
    lowerneck upperneck
    upperneck head
    lclavicle lhumerus
    lhumerus lradius
    lradius lwrist
    lwrist lhand lthumb
    lhand lfingers
    rclavicle rhumerus
    rhumerus rradius
    rradius rwrist
    rwrist rhand rthumb
    rhand rfingers
  end

#!OML:ASF H:\Punching\Project 1\Capture day 1\Session 1\female.ASF
:FULLY-SPECIFIED
:DEGREES
426
root 1.05751 15.1209 2.40558 13.6447 -15.5366 -3.55151
lowerback 2.33654 -4.30156 -0.483551
upperback -4.73399 -5.66994 2.81925
thorax -5.88891 -2.73075 3.61083
lowerneck -10.4841 2.53741 11.658
upperneck 31.3296 0.0827879 1.41136
head 12.1898 1.45854 -1.48377
rclavicle -1.08617e-014 -9.39258e-015
rhumerus 4.2138 9.13146 -68.491
rradius 125.396
rwrist -33.9771
rhand -9.94247 -21.4173
rfingers 7.12502
rthumb 16.039 -50.7734
lclavicle -1.08617e-014 -9.39258e-015
lhumerus 20.0292 -47.6395 83.9281
lradius 135.684
lwrist 8.44189
lhand -29.9579 8.13069
lfingers 7.12502
lthumb -3.27677 38.0853
rfemur 0.932079 1.29362 9.53014
rtibia 7.23222
rfoot -17.4253 -10.9138
rtoes -16.1652
lfemur -40.0585 7.14418 -7.62549
ltibia 41.0589
lfoot -8.5401 14.759
ltoes -0.213664
427
root 1.05099 15.1151 2.40176 13.5838 -13.634 -3.16121
lowerback 2.11343 -4.08708 -0.326968
upperback -4.80175 -5.37198 2.84259
thorax -5.86263 -2.58919 3.5141
lowerneck -10.7588 1.73298 10.8006
upperneck 31.1531 -0.999854 1.79826
head 12.1017 0.926957 -1.33629
rclavicle 2.4348e-014 2.48481e-016
rhumerus 5.29282 7.71827 -67.7805
rradius 123.118
rwrist -32.7224
rhand -8.61498 -21.4773
rfingers 7.12502
rthumb 17.317 -50.7258
lclavicle 2.4348e-014 2.48481e-016
lhumerus 19.804 -48.2029 84.1125
lradius 135.483
lwrist 8.42013
lhand -29.696 7.99239
lfingers 7.12502
lthumb -3.02387 37.9507
rfemur 1.80381 -0.501407 9.55881
rtibia 6.81662
rfoot -17.5268 -10.8555
rtoes -15.8684
lfemur -40.8393 6.7222 -8.23403
ltibia 40.8886
lfoot -7.90418 13.3929
ltoes -0.414287
428
root 1.0438 15.1073 2.39937 13.5309 -11.6637 -2.74723
lowerback 1.86044 -3.84387 -0.174756
upperback -4.88522 -5.03706 2.84929
thorax -5.83757 -2.42925 3.39978
lowerneck -10.9531 0.886621 9.89224
upperneck 30.9388 -2.11997 2.21565
head 11.9981 0.374682 -1.17246
rclavicle 4.05831e-014 -4.17448e-015
rhumerus 6.43155 6.16615 -66.9923
rradius 120.687
rwrist -32.1169
rhand -7.28542 -21.5964
rfingers 7.12502
rthumb 18.5963 -50.7276
lclavicle 4.05831e-014 -4.17448e-015
lhumerus 19.6554 -48.7297 84.1792
lradius 135.264
lwrist 8.48605
lhand -29.4129 7.89024
lfingers 7.12502
lthumb -2.75045 37.8523
rfemur 2.66752 -2.3663 9.54147
rtibia 6.47722
rfoot -17.6919 -10.7862
rtoes -15.5495
lfemur -41.6196 6.2459 -8.88616
ltibia 40.7234
lfoot -7.28111 11.9883
ltoes -0.612966
429
root 1.03642 15.0971 2.39849 13.4768 -9.64164 -2.32653
lowerback 1.60391 -3.58622 -0.0311792
upperback -4.97986 -4.6834 2.85854
thorax -5.82068 -2.25922 3.29355
lowerneck -11.0544 0.0182859 8.93098
upperneck 30.6804 -3.24476 2.65241
head 11.8777 -0.186103 -0.991374
rclavicle -9.56651e-015 -3.89618e-014
rhumerus 7.65994 4.54643 -66.1003
rradius 118.077
rwrist -32.2045
rhand -6.08508 -21.8605
rfingers 7.12502
rthumb 19.7506 -50.8771
lclavicle -9.56651e-015 -3.89618e-014
lhumerus 19.5925 -49.1907 84.1398
lradius 135.023
lwrist 8.62574
lhand -29.1142 7.83957
lfingers 7.12502
lthumb -2.46196 37.8051
rfemur 3.54692 -4.27856 9.48895
rtibia 6.18941
rfoot -17.9111 -10.7004
rtoes -15.1803
lfemur -42.3785 5.71728 -9.55883
ltibia 40.5769
lfoot -6.68681 10.5562
ltoes -0.809901
430
root 1.02966 15.0842 2.39896 13.4195 -7.59705 -1.91914
lowerback 1.35507 -3.3131 0.118862
upperback -5.08082 -4.30862 2.87296
thorax -5.81439 -2.0785 3.19032
lowerneck -11.0738 -0.859799 7.94818
upperneck 30.3897 -4.36243 3.08744
head 11.7486 -0.748856 -0.804557
rclavicle 8.49804e-014 -3.18055e-015
rhumerus 8.99681 2.896 -65.0998
rradius 115.226
rwrist -32.9526
rhand -5.1399 -22.3422
rfingers 7.12502
rthumb 20.659 -51.2628
lclavicle 8.49804e-014 -3.18055e-015
lhumerus 19.6166 -49.6034 84.009
lradius 134.769
lwrist 8.83498
lhand -28.8266 7.85917
lfingers 7.12502
lthumb -2.18426 37.8277
rfemur 4.46187 -6.20353 9.40844
rtibia 5.90721
rfoot -18.1552 -10.5938
rtoes -14.753
lfemur -43.103 5.14311 -10.2268
ltibia 40.4617
lfoot -6.13442 9.12151
ltoes -1.02674
431
root 1.0243 15.0686 2.40064 13.348 -5.54522 -1.54183
lowerback 1.13353 -3.03223 0.290792
upperback -5.1868 -3.92171 2.89906
thorax -5.82862 -1.89205 3.08997
lowerneck -11.0062 -1.7333 6.95599
upperneck 30.0725 -5.45535 3.51182
head 11.6125 -1.30559 -0.614914
rclavicle 5.35725e-014 3.97569e-015
rhumerus 10.4612 1.24619 -63.9995
rradius 112.061
rwrist -34.2769
rhand -4.49428 -23.0918
rfingers 7.12502
rthumb 21.2792 -51.9436
lclavicle 5.35725e-014 3.97569e-015
lhumerus 19.6965 -49.9586 83.8279
lradius 134.51
lwrist 9.07516
lhand -28.5564 7.98119
lfingers 7.12502
lthumb -1.92329 37.9523
rfemur 5.45195 -8.11906 9.30409
rtibia 5.56908
rfoot -18.3842 -10.4659
rtoes -14.2867
lfemur -43.7807 4.52289 -10.8677
ltibia 40.3911
lfoot -5.63891 7.70779
ltoes -1.22963
432
root 1.02078 15.0503 2.40308 13.2576 -3.49382 -1.20758
lowerback 0.954249 -2.72272 0.536973
upperback -5.32648 -3.49343 2.89513
thorax -5.90904 -1.68837 2.92007
lowerneck -10.7467 -2.62284 5.98614
upperneck 29.7051 -6.56222 3.96114
head 11.4394 -1.86965 -0.417049
rclavicle -1.43622e-014 1.35174e-014
rhumerus 11.9508 -0.452911 -62.8352
rradius 108.516
rwrist -36.0329
rhand -4.16706 -24.1297
rfingers 7.12502
rthumb 21.5935 -52.9457
lclavicle -1.43622e-014 1.35174e-014
lhumerus 19.7298 -50.3587 83.6773
lradius 134.259
lwrist 9.30961
lhand -28.2629 8.14415
lfingers 7.12502
lthumb -1.63979 38.1176
rfemur 6.57497 -10.0116 9.17112
rtibia 5.06844
rfoot -18.5428 -10.3123
rtoes -13.7531
lfemur -44.4146 3.85807 -11.4658
ltibia 40.3761
lfoot -5.20474 6.33706
ltoes -1.39199
433
root 1.01949 15.0291 2.40618 13.1355 -1.46188 -0.931681
lowerback 0.820999 -2.3979 0.86002
upperback -5.47211 -3.04141 2.86943
thorax -6.02485 -1.4772 2.68641
lowerneck -10.3948 -3.49713 5.09323
upperneck 29.3281 -7.656 4.39744
head 11.2624 -2.42443 -0.231737
rclavicle -8.10048e-015 2.06736e-014
rhumerus 13.5372 -2.18778 -61.6418
rradius 104.505
rwrist -38.0375
rhand -4.12893 -25.4398
rfingers 7.12502
rthumb 21.6301 -54.2517
lclavicle -8.10048e-015 2.06736e-014
lhumerus 19.764 -50.7602 83.5121
lradius 134.027
lwrist 9.52872
lhand -27.9479 8.32618
lfingers 7.12502
lthumb -1.33555 38.3017
rfemur 7.88343 -11.8536 9.0008
rtibia 4.32041
rfoot -18.5646 -10.1421
rtoes -13.2368
lfemur -44.9929 3.16401 -12.0085
ltibia 40.421
lfoot -4.84024 5.03422
ltoes -1.46893
434
root 1.02095 15.0055 2.41028 12.9905 0.550344 -0.725834
lowerback 0.712001 -2.07496 1.26924
upperback -5.61717 -2.58774 2.84316
thorax -6.15306 -1.27022 2.40486
lowerneck -9.96834 -4.33766 4.2462
upperneck 28.9438 -8.70875 4.82878
head 11.0854 -2.95968 -0.0474503
rclavicle -3.926e-015 -1.51076e-014
rhumerus 15.2691 -3.91711 -60.4442
rradius 99.9425
rwrist -40.0711
rhand -4.31154 -26.9733
rfingers 7.12502
rthumb 21.4548 -55.8053
lclavicle -3.926e-015 -1.51076e-014
lhumerus 19.7879 -51.1069 83.3678
lradius 133.8
lwrist 9.70456
lhand -27.5906 8.41948
lfingers 7.12502
lthumb -0.99052 38.3969
rfemur 9.44948 -13.6373 8.77174
rtibia 3.17951
rfoot -18.3753 -9.96542
rtoes -12.7271
lfemur -45.5301 2.43742 -12.4843
ltibia 40.5244
lfoot -4.55 3.82483
ltoes -1.38751
435
root 1.02416 14.9797 2.4137 12.8065 2.51546 -0.590323
lowerback 0.666116 -1.76717 1.73224
upperback -5.75007 -2.14993 2.82661
thorax -6.29998 -1.07455 2.10601
lowerneck -9.56166 -5.12096 3.48195
upperneck 28.6024 -9.69802 5.22103
head 10.9401 -3.46078 0.116877
rclavicle -2.98177e-016 -7.95139e-015
rhumerus 17.1782 -5.59574 -59.2847
rradius 94.7643
rwrist -41.874
rhand -4.71186 -28.5904
rfingers 7.12502
rthumb 21.0702 -57.4656
lclavicle -2.98177e-016 -7.95139e-015
lhumerus 19.8111 -51.3484 83.2313
lradius 133.575
lwrist 9.86618
lhand -27.1583 8.34173
lfingers 7.12502
lthumb -0.572971 38.3207
rfemur 11.7725 -15.302 8.31402
rtibia 0.733937
rfoot -17.4983 -9.76466
rtoes -12.2227
lfemur -46.009 1.70919 -12.8968
ltibia 40.675
lfoot -4.32776 2.71693
ltoes -1.17406
436
root 1.02897 14.9521 2.41639 12.5862 4.40679 -0.523369
lowerback 0.670527 -1.49052 2.22479
upperback -5.85994 -1.74932 2.84119
thorax -6.44463 -0.899198 1.8255
lowerneck -9.22485 -5.82622 2.78635
upperneck 28.3292 -10.5924 5.5598
head 10.8406 -3.91374 0.259601
rclavicle 3.83157e-014 -2.8625e-014
rhumerus 19.2884 -7.14006 -58.1832
rradius 88.9244
rwrist -43.1721
rhand -5.36711 -30.0929
rfingers 7.12502
rthumb 20.4407 -59.037
lclavicle 3.83157e-014 -2.8625e-014
lhumerus 19.8383 -51.4258 83.1121
lradius 133.334
lwrist 10.0081
lhand -26.6692 8.0544
lfingers 7.12502
lthumb -0.100562 38.0341
rfemur 13.2056 -16.8997 8.13236
rtibia 2.8625e-014
rfoot -17.4648 -9.68132
rtoes -11.7002
lfemur -46.4243 1.0013 -13.2498
ltibia 40.8571
lfoot -4.16804 1.71218
ltoes -0.877898
437
root 1.0346 14.9235 2.41823 12.3207 6.19383 -0.510147
lowerback 0.738873 -1.25452 2.70564
upperback -5.93937 -1.39884 2.89756
thorax -6.58657 -0.747912 1.59831
lowerneck -8.97376 -6.44338 2.141
upperneck 28.125 -11.3761 5.85239
head 10.7871 -4.31144 0.386662
rclavicle -2.36802e-014 7.95139e-015
rhumerus 21.6127 -8.49743 -57.1679
rradius 82.4115
rwrist -43.7239
rhand -6.30473 -31.3029
rfingers 7.12502
rthumb 19.5394 -60.3411
lclavicle -2.36802e-014 7.95139e-015
lhumerus 19.8712 -51.3854 82.9873
lradius 133.065
lwrist 9.92469
lhand -26.2574 7.79426
lfingers 7.12502
lthumb 0.297095 37.7738
rfemur 14.2465 -18.3984 8.08996
rtibia -6.04305e-014
rfoot -17.7751 -9.65745
rtoes -11.1714
lfemur -46.7517 0.334693 -13.5557
ltibia 41.0504
lfoot -4.06319 0.802467
ltoes -0.555784
438
root 1.04053 14.8951 2.41905 12.0169 7.83808 -0.544573
lowerback 0.862604 -1.03918 3.17243
upperback -6.00008 -1.07223 2.97175
thorax -6.73573 -0.608154 1.3989
lowerneck -8.79759 -6.98038 1.58406
upperneck 28.0053 -12.0651 6.08982
head 10.7771 -4.65735 0.486491
rclavicle 9.47954e-015 -7.95139e-016
rhumerus 24.0406 -9.68679 -56.2587
rradius 75.303
rwrist -43.323
rhand -7.57558 -32.1084
rfingers 7.12502
rthumb 18.3172 -61.266
lclavicle 9.47954e-015 -7.95139e-016
lhumerus 19.9102 -51.3155 82.8447
lradius 132.788
lwrist 9.62146
lhand -25.9543 7.66175
lfingers 7.12502
lthumb 0.589847 37.6407
rfemur 15.2644 -19.746 8.06056
rtibia 4.13472e-014
rfoot -18.0517 -9.6655
rtoes -10.6275
lfemur -46.9875 -0.267384 -13.8118
ltibia 41.2393
lfoot -3.99879 -0.0171302
ltoes -0.25215
439
root 1.0467 14.8683 2.41963 11.6825 9.30109 -0.602343
lowerback 1.02955 -0.844505 3.58572
upperback -6.0309 -0.771839 3.06599
thorax -6.87322 -0.478583 1.25095
lowerneck -8.75279 -7.43381 1.10549
upperneck 27.9959 -12.6561 6.26839
head 10.8286 -4.94818 0.556685
rclavicle 1.64339e-014 3.97569e-015
rhumerus 26.5202 -10.734 -55.4977
rradius 67.7768
rwrist -41.8377
rhand -9.12766 -32.4572
rfingers 7.12502
rthumb 16.8235 -61.7484
lclavicle 1.64339e-014 3.97569e-015
lhumerus 19.975 -51.2168 82.6729
lradius 132.504
lwrist 9.08094
lhand -25.7763 7.78625
lfingers 7.12502
lthumb 0.761825 37.7646
rfemur 16.2393 -20.9132 8.02113
rtibia -3.49861e-014
rfoot -18.2861 -9.70593
rtoes -10.1355
lfemur -47.1216 -0.787678 -14.0357
ltibia 41.4114
lfoot -3.96381 -0.751309
ltoes -0.00155234
